<svg width="100" height="100" viewBox="0 0 100 100" xmlns="http://www.w3.org/2000/svg" xmlns:xlink="http://www.w3.org/1999/xlink">
  <defs>
    <linearGradient id="grad1" x1="0%" y1="0%" x2="100%" y2="100%">
      <stop offset="0%" style="stop-color:#6366f1;stop-opacity:1" />
      <stop offset="100%" style="stop-color:#8b5cf6;stop-opacity:1" />
    </linearGradient>
    <filter id="shadow" x="-20%" y="-20%" width="140%" height="140%">
      <feGaussianBlur in="SourceAlpha" stdDeviation="2"/>
      <feOffset dx="1" dy="1" result="offsetblur"/>
      <feComponentTransfer>
        <feFuncA type="linear" slope="0.5"/>
      </feComponentTransfer>
      <feMerge> 
        <feMergeNode/>
        <feMergeNode in="SourceGraphic"/> 
      </feMerge>
    </filter>
  </defs>
  
  <g filter="url(#shadow)">
    <path d="M50 10 Q60 10 70 20 L90 50 L70 80 Q60 90 50 90 Q40 90 30 80 L10 50 L30 20 Q40 10 50 10 Z" fill="url(#grad1)" />
    
    <circle cx="50" cy="50" r="12" fill="white"/>
    
    <path d="M50 22 V15 M50 78 V85 M22 50 H15 M78 50 H85 M32 32 L27 27 M68 68 L73 73 M32 68 L27 73 M68 32 L73 27" 
          stroke="white" stroke-width="3" stroke-linecap="round"/>
  </g>
  
  <text x="50" y="56" font-family="Arial, sans-serif" font-size="18" fill="#4338ca" text-anchor="middle" font-weight="bold">CS</text>
</svg>
